<svg width="1884" height="440" xmlns="http://www.w3.org/2000/svg" xmlns:xlink="http://www.w3.org/1999/xlink" xml:space="preserve" overflow="hidden"><g transform="translate(-1416 -467)"><g><path d="M1945.51 550.796C1945.42 576.675 1945.32 602.555 1945.23 628.434 1949.16 628.32 1953.08 628.207 1957.01 628.096 1971.23 627.696 1979.25 614.427 1979.34 589.099 1979.43 563.376 1971.51 550.422 1957.3 550.625 1953.37 550.681 1949.44 550.738 1945.51 550.796ZM3074.98 471.167C3101.78 471.167 3128.57 471.167 3155.37 471.167 3164.02 513.339 3172.62 555.755 3181.22 598.408 3182.37 598.456 3183.53 598.505 3184.68 598.553 3193.18 556.339 3201.64 513.874 3210.11 471.167 3236.91 471.167 3263.7 471.167 3290.5 471.167 3271.1 537.943 3251.69 603.794 3232.12 668.704 3253.81 742.96 3275.16 818.433 3296.31 895.119 3271.1 891.251 3245.87 887.534 3220.62 883.973 3208.79 833.389 3196.9 783.222 3184.9 733.486 3183.75 733.386 3182.6 733.286 3181.45 733.187 3169.69 780.456 3157.96 827.373 3146.17 873.924 3120.87 870.664 3095.56 867.557 3070.23 864.606 3091.57 798.092 3112.77 730.692 3133.97 662.408 3114.42 597.86 3094.78 534.113 3074.98 471.167ZM2974 471.167C2999.41 471.167 3024.82 471.167 3050.23 471.167 3050.62 601.592 3051.02 732.018 3051.41 862.444 3026.07 859.57 3000.71 856.85 2975.33 854.288 2974.89 726.581 2974.44 598.874 2974 471.167ZM2806.17 471.167C2831.58 471.167 2856.99 471.167 2882.4 471.167 2882.76 568.849 2883.12 666.531 2883.48 764.213 2906.46 765.758 2929.44 767.409 2952.41 769.155 2952.51 796.785 2952.61 824.415 2952.71 852.045 2904.35 847.342 2855.94 843.205 2807.5 839.643 2807.05 716.817 2806.61 593.992 2806.17 471.167ZM2628.12 471.167C2679.97 471.167 2731.83 471.167 2783.69 471.167 2783.78 497.78 2783.88 524.393 2783.97 551.006 2757.51 550.604 2731.05 550.237 2704.59 549.91 2704.66 570.383 2704.72 590.856 2704.79 611.329 2727.33 611.825 2749.86 612.373 2772.4 612.966 2772.49 639.52 2772.59 666.074 2772.68 692.628 2750.14 691.703 2727.59 690.848 2705.03 690.072 2705.18 737.712 2705.34 785.352 2705.49 832.991 2680.02 831.543 2654.54 830.253 2629.06 829.122 2628.74 709.804 2628.43 590.485 2628.12 471.167ZM2447.05 471.167C2498.68 471.167 2550.31 471.167 2601.93 471.167 2601.99 497.053 2602.06 522.94 2602.12 548.826 2575.88 548.598 2549.65 548.404 2523.41 548.249 2523.44 568.162 2523.48 588.075 2523.51 607.988 2545.95 608.223 2568.38 608.508 2590.82 608.839 2590.88 634.693 2590.94 660.547 2591 686.401 2568.55 685.884 2546.09 685.438 2523.64 685.07 2523.68 706.139 2523.71 727.208 2523.75 748.278 2550.62 748.849 2577.48 749.56 2604.34 750.408 2604.41 776.3 2604.47 802.192 2604.53 828.083 2552.17 825.97 2499.77 824.528 2447.37 823.759 2447.26 706.228 2447.16 588.698 2447.05 471.167ZM2279.22 471.167C2304.63 471.167 2330.04 471.167 2355.45 471.167 2355.44 562.948 2355.43 654.73 2355.42 746.511 2378.47 746.505 2401.52 746.6 2424.58 746.798 2424.59 772.354 2424.61 797.911 2424.63 823.468 2376.05 822.937 2327.46 822.984 2278.88 823.61 2278.99 706.129 2279.11 588.648 2279.22 471.167ZM2071.07 471.167C2133.55 471.167 2196.03 471.167 2258.52 471.167 2258.49 496.756 2258.45 522.345 2258.42 547.934 2240.16 547.999 2221.9 548.082 2203.63 548.183 2203.47 640.473 2203.31 732.764 2203.14 825.055 2177.64 825.699 2152.15 826.503 2126.66 827.466 2126.89 734.546 2127.12 641.627 2127.35 548.707 2108.51 548.862 2089.67 549.037 2070.84 549.23 2070.91 523.209 2070.99 497.188 2071.07 471.167ZM1869.58 471.167C1901.22 471.167 1932.87 471.167 1964.51 471.167 2020.99 471.167 2055.85 514.971 2055.63 587.718 2055.5 629.176 2044.27 661.12 2024.46 681.741 2038.5 731.354 2052.58 780.779 2066.7 830.025 2040.41 831.276 2014.12 832.696 1987.85 834.285 1977.92 792.16 1968.01 749.898 1958.11 707.496 1953.72 707.682 1949.33 707.871 1944.93 708.063 1944.78 751.063 1944.62 794.063 1944.46 837.062 1919.01 838.782 1893.57 840.66 1868.14 842.695 1868.62 718.852 1869.1 595.009 1869.58 471.167ZM1627.16 471.167C1652.57 471.167 1677.97 471.167 1703.38 471.167 1703.09 556.95 1702.79 642.733 1702.49 728.517 1702.36 766.003 1711.99 781.578 1729.99 780.095 1747.64 778.639 1757.39 762.115 1757.53 724.761 1757.84 640.229 1758.16 555.698 1758.47 471.167 1783.88 471.167 1809.29 471.167 1834.7 471.167 1834.39 550.614 1834.09 630.061 1833.78 709.508 1833.4 807.697 1793.69 856.987 1729.68 863.702 1664.99 870.489 1626.13 826.823 1626.43 723.054 1626.67 639.092 1626.91 555.129 1627.16 471.167ZM1419 471.167C1481.48 471.167 1543.97 471.167 1606.45 471.167 1606.37 500.053 1606.29 528.94 1606.22 557.827 1587.98 558.312 1569.75 558.818 1551.52 559.339 1551.3 664.998 1551.09 770.657 1550.87 876.317 1525.58 879.651 1500.31 883.142 1475.07 886.783 1475.18 778.394 1475.28 670.005 1475.39 561.616 1456.59 562.203 1437.8 562.81 1419 563.433 1419 532.677 1419 501.922 1419 471.167Z" fill="#00B050" fill-rule="evenodd" fill-opacity="1"/><text fill="#000000" fill-opacity="0" font-family="Arial,Arial_MSFontService,sans-serif" font-size="423.952" direction="ltr" writing-mode="lr-tb" x="1419" y="842.125">TURTLEFLIX</text></g></g></svg>